# xmcd
#
# Track frame offsets: 
#        150
#        16627
#        47176
#        65750
#        77876
#        98820
#        125188
#        142849
#        159855
#        181384
#        192387
#        205305
#        215813
#        228461
#        241348
#        258971
#        273865
#        289301
#
# Disc length: 4028 seconds
#
# Revision: 3
# Processed by: cddbd v1.5.2PL0 Copyright (c) Steve Scherf et al.
# Submitted via: ExactAudioCopy v1.0b3
#
DISCID=0b0fba12
DTITLE=The Legendary Blues Singers - Play Me The Blues...
DYEAR=2001
DGENRE=Blues
TTITLE0=John Lee Hooker - "Mama, You Got A Daughter"
TTITLE1=Jimmy Witherspoon - Ain't Nobody's Business
TTITLE2=Santana - With A Little Help From My Friends
TTITLE3=John Mayall - Lost And Gone
TTITLE4=Johnny Winter - Going Down Slow
TTITLE5=Muddy Waters - They Call Me Muddy Waters
TTITLE6=John Lee Hooker - Wednesday Evenin' Blues
TTITLE7=Ike and Tina Turner - I Smell Trouble
TTITLE8=Brownie McGhee and Sonny Terry - Blues For The Lowlands
TTITLE9=Canned Heat - Spoonful
TTITLE10=Nina Simone - Backlash Blues
TTITLE11=Eric Clapton - West Coast Idea
TTITLE12=Dinah Washington - Wise Woman Blues
TTITLE13=Mississippi John Hurt - Got The Blues Can't Be Satisfied
TTITLE14=Lightnin' Hopkins - Want To Come Home
TTITLE15=Bessie Smith - Back Water Blues
TTITLE16=Big Joe Williams - Baby Please Don't Go
TTITLE17=Mississippi John Hurt - Nobody's Dirty Business
EXTD=
EXTT0=
EXTT1=
EXTT2=
EXTT3=re-recording
EXTT4=re-recording
EXTT5=live recording
EXTT6=
EXTT7=
EXTT8=
EXTT9=re-recording
EXTT10=live recording
EXTT11=
EXTT12=
EXTT13=
EXTT14=
EXTT15=
EXTT16=live recording
EXTT17=
PLAYORDER=
